<?xml version="1.0" standalone="no"?>
<!DOCTYPE svg PUBLIC "-//W3C//DTD SVG 1.1//EN" "http://www.w3.org/Graphics/SVG/1.1/DTD/svg11.dtd" >
<svg xmlns="http://www.w3.org/2000/svg">
<metadata></metadata>
<defs>
<font id="core_sans_d_35_regularregular" horiz-adv-x="1073" >
<font-face units-per-em="2048" ascent="1638" descent="-410" />
<missing-glyph horiz-adv-x="532" />
<glyph unicode="&#xfb01;" horiz-adv-x="1122" d="M76 887v137h157v63q0 109 19 180t63.5 114t110 60t166.5 17h59v-137h-71q-115 0 -154 -48.5t-39 -180.5v-68h584v-1024h-154v887h-430v-887h-154v887h-157zM817 1270v188h154v-188h-154z" />
<glyph unicode="&#xfb02;" horiz-adv-x="1193" d="M76 887v137h157v63q0 205 78.5 288t259.5 83q136 0 236 -51v51h154v-1147q0 -83 36 -128.5t105 -45.5h37v-137h-41q-291 0 -291 295v979q-98 45 -223 45q-116 0 -156.5 -46t-40.5 -173v-76h264v-137h-264v-887h-154v887h-157z" />
<glyph unicode="&#xfb03;" horiz-adv-x="1705" d="M76 887v137h157v63q0 200 79.5 285.5t258.5 85.5q82 0 140 -20l-21 -135q-44 16 -112 16q-112 0 -151.5 -49t-39.5 -183v-63h430v63q0 109 19 180t63.5 114t110 60t166.5 17h59v-137h-72q-115 0 -153.5 -48.5t-38.5 -180.5v-68h583v-1024h-153v887h-430v-887h-154v887 h-430v-887h-154v887h-157zM1401 1270v188h153v-188h-153z" />
<glyph unicode="&#xfb04;" horiz-adv-x="1777" d="M76 887v137h157v63q0 200 79.5 285.5t258.5 85.5q82 0 140 -20l-21 -135q-44 16 -112 16q-112 0 -151.5 -49t-39.5 -183v-63h430v63q0 205 78.5 288t259.5 83q136 0 236 -51v51h153v-1147q0 -83 36 -128.5t106 -45.5h36v-137h-41q-290 0 -290 295v979q-98 45 -224 45 q-116 0 -156 -46t-40 -173v-76h264v-137h-264v-887h-154v887h-430v-887h-154v887h-157z" />
<glyph horiz-adv-x="682" />
<glyph horiz-adv-x="0" />
<glyph horiz-adv-x="0" />
<glyph unicode="&#xd;" horiz-adv-x="485" />
<glyph unicode=" "  horiz-adv-x="532" />
<glyph unicode="&#x09;" horiz-adv-x="532" />
<glyph unicode="&#xa0;" horiz-adv-x="532" />
<glyph unicode="!" horiz-adv-x="546" d="M197 0v193h153v-193h-153zM197 1223v211h153v-211l-26 -820h-101z" />
<glyph unicode="&#x22;" horiz-adv-x="792" d="M168 1434h139l-20 -383h-99zM475 1434h139l-20 -383h-98z" />
<glyph unicode="#" horiz-adv-x="1394" d="M86 389v137h236l81 381h-247v137h278l86 390h154l-84 -390h358l84 390h156l-86 -390h207v-137h-238l-82 -381h250v-137h-281l-84 -389h-153l84 389h-359l-84 -389h-155l84 389h-205zM477 526h359l82 381h-359z" />
<glyph unicode="$" horiz-adv-x="1173" d="M86 379l166 31q33 -117 106 -190t181 -93v539l-19 4q-203 38 -299 134.5t-96 264.5q0 72 26 138.5t75.5 121.5t130.5 90t182 39v154h129v-162q150 -26 250.5 -123t134.5 -246l-164 -30q-52 201 -221 247v-505q210 -38 313.5 -140.5t103.5 -273.5q0 -167 -108 -278 t-309 -124v-155h-129v160q-173 19 -290.5 123.5t-162.5 273.5zM287 1069q0 -102 60.5 -165t191.5 -89v496q-119 -7 -185.5 -76.5t-66.5 -165.5zM668 123q120 13 188 82t68 174q0 104 -62 167.5t-194 94.5v-518z" />
<glyph unicode="%" horiz-adv-x="1626" d="M123 991v176q0 124 72.5 207.5t199.5 83.5t200 -83.5t73 -207.5v-176q0 -124 -73 -207.5t-200 -83.5t-199.5 83.5t-72.5 207.5zM254 1010q0 -94 37 -142.5t104 -48.5t104.5 48.5t37.5 142.5v139q0 94 -37.5 142t-104.5 48t-104 -48t-37 -142v-139zM461 0l571 1434h133 l-571 -1434h-133zM958 266v176q0 124 73 207.5t200 83.5t199.5 -83.5t72.5 -207.5v-176q0 -124 -72.5 -207.5t-199.5 -83.5t-200 83.5t-73 207.5zM1090 285q0 -94 37 -142.5t104 -48.5t104 48.5t37 142.5v139q0 94 -37 142t-104 48t-104 -48t-37 -142v-139z" />
<glyph unicode="&#x26;" horiz-adv-x="1337" d="M141 358q0 106 54 201t186 201l63 51q-103 121 -140.5 200t-37.5 160q0 120 85.5 202.5t221.5 82.5q134 0 217.5 -81.5t83.5 -203.5q0 -193 -227 -372l344 -406q76 161 76 357l145 -9q0 -273 -118 -471l231 -270h-182l-133 156q-167 -181 -428 -181q-200 0 -320.5 108.5 t-120.5 274.5zM291 362q0 -113 79 -180t214 -67q198 0 327 155l-376 441l-25 -21q-127 -100 -173 -169.5t-46 -158.5zM416 1163q0 -54 31.5 -112t109.5 -152q168 132 168 264q0 67 -43.5 110.5t-110.5 43.5q-70 0 -112.5 -42.5t-42.5 -111.5z" />
<glyph unicode="'" horiz-adv-x="475" d="M168 1434h139l-20 -383h-99z" />
<glyph unicode="(" horiz-adv-x="675" d="M205 285v845q0 191 78 319t225 187l45 -141q-197 -91 -197 -393v-789q0 -302 197 -393l-45 -141q-147 59 -225 187t-78 319z" />
<glyph unicode=")" horiz-adv-x="675" d="M123 -80q196 91 196 393v789q0 302 -196 393l45 141q147 -59 225 -187t78 -319v-845q0 -191 -78 -319t-225 -187z" />
<glyph unicode="*" horiz-adv-x="1046" d="M100 504l306 164l-306 163l70 121l295 -184l-12 348h141l-12 -348l295 184l69 -121l-307 -163l307 -164l-69 -121l-295 182l12 -346h-141l12 346l-295 -182z" />
<glyph unicode="+" horiz-adv-x="1064" d="M104 604v125h359v387h139v-387h359v-125h-359v-387h-139v387h-359z" />
<glyph unicode="," horiz-adv-x="536" d="M180 0v201h176v-195q0 -100 -41.5 -153t-134.5 -66v76q50 10 73 39.5t23 97.5h-96z" />
<glyph unicode="-" horiz-adv-x="817" d="M104 598v137h609v-137h-609z" />
<glyph unicode="." horiz-adv-x="536" d="M180 0v201h176v-201h-176z" />
<glyph unicode="/" horiz-adv-x="800" d="M0 -190l639 1794h162l-639 -1794h-162z" />
<glyph unicode="0" d="M106 469v496q0 233 117.5 363t313.5 130t313 -129.5t117 -363.5v-496q0 -234 -117 -364t-313 -130t-313.5 130t-117.5 364zM262 489q0 -196 74.5 -285t200.5 -89t200 89t74 285v455q0 196 -74 285.5t-200 89.5t-200.5 -89.5t-74.5 -285.5v-455z" />
<glyph unicode="1" d="M207 0v139h303v1131l-303 -135v149l317 150h142v-1295h299v-139h-758z" />
<glyph unicode="2" d="M113 0v125l589 668q56 63 78.5 120.5t22.5 128.5q0 129 -75 203t-191 74q-117 0 -192 -74t-75 -203v-34l-155 12v24q0 177 116 295.5t306 118.5q186 0 303.5 -119t117.5 -295q0 -100 -35.5 -179t-111.5 -165l-496 -561h643v-139h-845z" />
<glyph unicode="3" d="M106 432l156 12v-12q0 -156 77.5 -236.5t197.5 -80.5t196 80t76 237q0 162 -71 233.5t-191 71.5q-58 0 -113 -20l-90 102l381 475h-575v140h761v-134l-354 -444q12 2 35 2q161 0 267 -111t106 -317q0 -208 -115.5 -331.5t-312.5 -123.5q-196 0 -313.5 126.5t-117.5 330.5 z" />
<glyph unicode="4" d="M78 319v140l586 975h167v-973h162v-142h-162v-319h-155v319h-598zM250 461h426v710z" />
<glyph unicode="5" d="M113 432l155 12v-10q0 -152 75 -235.5t198 -83.5q126 0 200 86.5t74 251.5q0 170 -73.5 254t-194.5 84q-63 0 -119.5 -27.5t-91.5 -75.5h-156v746h717v-140h-561v-458q91 94 235 94q180 0 290 -123.5t110 -353.5q0 -228 -116.5 -353t-313.5 -125q-193 0 -310.5 121.5 t-117.5 335.5z" />
<glyph unicode="6" d="M100 420q0 119 52 217l405 797h168l-307 -603q47 29 123 29q194 0 317 -127.5t123 -314.5t-123 -315t-317 -128q-130 0 -231.5 60t-155.5 161t-54 224zM256 418q0 -132 79.5 -217.5t205.5 -85.5q124 0 204 85.5t80 217.5q0 133 -79.5 218t-204.5 85q-126 0 -205.5 -84.5 t-79.5 -218.5z" />
<glyph unicode="7" d="M121 1292v142h833v-125l-485 -1309h-160l479 1292h-667z" />
<glyph unicode="8" d="M96 420q0 125 62.5 228.5t171.5 148.5q-82 39 -130 119.5t-48 173.5q0 155 108.5 261.5t276.5 106.5t276.5 -106.5t108.5 -261.5q0 -93 -48.5 -173.5t-130.5 -119.5q109 -45 171.5 -148.5t62.5 -228.5q0 -187 -122.5 -316t-317.5 -129t-318 129t-123 316zM252 418 q0 -130 79.5 -217.5t205.5 -87.5q125 0 204.5 87.5t79.5 217.5t-79.5 218.5t-204.5 88.5t-205 -88.5t-80 -218.5zM307 1090q0 -98 65 -163t165 -65q99 0 164 65t65 163q0 99 -65 164t-164 65t-164.5 -65.5t-65.5 -163.5z" />
<glyph unicode="9" d="M92 1016q0 187 123 314.5t317 127.5q196 0 318.5 -128t122.5 -316q0 -121 -51 -217l-406 -797h-168l307 602q-47 -29 -123 -29q-194 0 -317 128t-123 315zM248 1016q0 -133 79.5 -218t204.5 -85q126 0 205.5 84.5t79.5 218.5q0 132 -79.5 217.5t-205.5 85.5 q-124 0 -204 -85.5t-80 -217.5z" />
<glyph unicode=":" horiz-adv-x="536" d="M180 0v201h176v-201h-176zM180 924v200h176v-200h-176z" />
<glyph unicode=";" horiz-adv-x="536" d="M180 0v201h176v-195q0 -100 -41.5 -153t-134.5 -66v76q50 10 73 39.5t23 97.5h-96zM180 924v200h176v-200h-176z" />
<glyph unicode="&#x3c;" horiz-adv-x="1064" d="M123 602v131l819 385v-139l-672 -311l672 -312v-139z" />
<glyph unicode="=" horiz-adv-x="1064" d="M104 410v125h857v-125h-857zM104 799v125h857v-125h-857z" />
<glyph unicode="&#x3e;" horiz-adv-x="1064" d="M125 217v139l672 312l-672 311v139l819 -385v-131z" />
<glyph unicode="?" horiz-adv-x="1040" d="M102 1075q19 172 128.5 277.5t283.5 105.5q177 0 286 -109.5t109 -287.5q0 -113 -44 -196t-134 -165q-84 -78 -117.5 -136.5t-33.5 -143.5v-49h-154v63q0 102 40.5 177.5t145.5 168.5q80 71 112 133.5t32 143.5q0 125 -66.5 194.5t-177.5 69.5q-106 0 -173.5 -66.5 t-82.5 -193.5zM426 0v193h154v-193h-154z" />
<glyph unicode="@" horiz-adv-x="1515" d="M154 170v729q0 114 48.5 218t130 178.5t193 118.5t232.5 44q120 0 231.5 -44t193 -118.5t130.5 -178.5t49 -218v-387q0 -240 -100.5 -368t-296.5 -128q-124 0 -215 56.5t-135 149.5t-44 210v117q0 181 97.5 298.5t273.5 117.5q95 0 170 -36t115 -95v32q0 202 -136 331.5 t-333 129.5t-333 -129.5t-136 -331.5v-663q0 -133 63.5 -238.5t170 -163t235.5 -57.5q115 0 196 47l66 -113q-113 -65 -262 -65q-121 0 -232.5 44t-193 118.5t-130 177.5t-48.5 217zM725 463q0 -146 64.5 -227.5t199.5 -81.5q110 0 174 87t64 248v177q-37 77 -101 119 t-145 42q-128 0 -192 -82t-64 -227v-55z" />
<glyph unicode="A" horiz-adv-x="1167" d="M12 0l492 1434h160l491 -1434h-174l-117 354h-563l-115 -354h-174zM348 500h469l-233 717z" />
<glyph unicode="B" horiz-adv-x="1181" d="M152 0v1434h454q87 0 164 -22t141.5 -66.5t102 -120.5t37.5 -176q0 -115 -52.5 -192t-146.5 -112q110 -35 176 -123.5t66 -218.5q0 -102 -35.5 -181t-97 -126.5t-139.5 -71.5t-169 -24h-501zM313 145h314q148 0 226.5 66t78.5 195q0 126 -80.5 193t-220.5 67h-318v-521z M313 811h281q139 0 217 59t78 179q0 239 -309 239h-267v-477z" />
<glyph unicode="C" horiz-adv-x="1193" d="M109 541v352q0 253 136 409t363 156q201 0 334 -120t162 -324l-160 -27q-28 158 -115.5 242t-220.5 84q-155 0 -246.5 -118t-91.5 -327v-303q0 -209 91.5 -326.5t246.5 -117.5q133 0 220.5 83t115.5 240l160 -26q-29 -204 -162 -323.5t-334 -119.5q-227 0 -363 156.5 t-136 409.5z" />
<glyph unicode="D" horiz-adv-x="1210" d="M152 0v1434h438q228 0 365 -145t137 -396v-352q0 -251 -137 -396t-365 -145h-438zM313 145h265q161 0 256.5 107t95.5 313v303q0 206 -95.5 313t-256.5 107h-265v-1143z" />
<glyph unicode="E" horiz-adv-x="1103" d="M152 0v1434h852v-146h-691v-477h609v-145h-609v-521h691v-145h-852z" />
<glyph unicode="F" horiz-adv-x="1075" d="M152 0v1434h852v-146h-691v-497h629v-146h-629v-645h-161z" />
<glyph unicode="G" horiz-adv-x="1214" d="M109 541v352q0 253 136 409t363 156q201 0 334 -120t162 -324l-160 -27q-28 158 -115.5 242t-220.5 84q-155 0 -246.5 -118t-91.5 -327v-303q0 -209 91.5 -326.5t250.5 -117.5q158 0 249 119t91 315v41h-336v145h498v-198q0 -253 -135 -410.5t-367 -157.5 q-231 0 -367 156.5t-136 409.5z" />
<glyph unicode="H" horiz-adv-x="1259" d="M152 0v1434h161v-625h633v625h162v-1434h-162v664h-633v-664h-161z" />
<glyph unicode="I" horiz-adv-x="464" d="M152 0v1434h161v-1434h-161z" />
<glyph unicode="J" horiz-adv-x="1032" d="M45 324l162 26q24 -84 69 -137t92.5 -72.5t102.5 -19.5q57 0 103.5 17.5t84.5 56t59 106t21 160.5v973h162v-998q0 -226 -117 -343.5t-313 -117.5q-159 0 -271.5 90t-154.5 259z" />
<glyph unicode="K" horiz-adv-x="1179" d="M152 0v1434h161v-709l234 149q106 68 174 131.5t103 131t47 131t12 151.5v15h159v-15q0 -106 -15.5 -188.5t-55 -161.5t-109 -149t-174.5 -138l483 -782h-182l-428 700l-248 -159v-541h-161z" />
<glyph unicode="L" horiz-adv-x="1036" d="M152 0v1434h161v-1289h691v-145h-852z" />
<glyph unicode="M" horiz-adv-x="1540" d="M152 0v1434h143l475 -863l475 863h144v-1434h-162v1100l-389 -707h-136l-389 707v-1100h-161z" />
<glyph unicode="N" horiz-adv-x="1318" d="M152 0v1434h153l701 -1137v1137h161v-1434h-153l-701 1137v-1137h-161z" />
<glyph unicode="O" horiz-adv-x="1216" d="M109 541v352q0 253 136 409t363 156t363.5 -156.5t136.5 -408.5v-352q0 -253 -136.5 -409.5t-363.5 -156.5t-363 156.5t-136 409.5zM270 565q0 -209 91.5 -326.5t246.5 -117.5t246.5 117.5t91.5 326.5v303q0 209 -91.5 327t-246.5 118t-246.5 -118t-91.5 -327v-303z" />
<glyph unicode="P" horiz-adv-x="1183" d="M152 0v1434h497q86 0 164.5 -26.5t142.5 -77.5t102 -134.5t38 -187.5q0 -105 -38 -188.5t-102 -134t-142.5 -77t-164.5 -26.5h-336v-582h-161zM313 727h312q138 0 223.5 72.5t85.5 208.5t-85.5 208t-223.5 72h-312v-561z" />
<glyph unicode="Q" horiz-adv-x="1216" d="M109 541v352q0 252 137 408.5t362 156.5t362.5 -156.5t137.5 -408.5v-352q0 -204 -94 -351l162 -137l-89 -102l-161 137q-132 -113 -318 -113q-225 0 -362 157t-137 409zM270 565q0 -209 90.5 -326.5t247.5 -117.5q120 0 199 67l-160 136l88 102l156 -131q55 110 55 270 v303q0 209 -91 327t-247 118t-247 -118t-91 -327v-303z" />
<glyph unicode="R" horiz-adv-x="1193" d="M152 0v1434h497q86 0 164.5 -26t142.5 -76t102 -131t38 -183q0 -158 -85 -259.5t-220 -137.5l358 -621h-176l-346 602h-314v-602h-161zM313 748h312q138 0 223.5 70t85.5 200t-85.5 200t-223.5 70h-312v-540z" />
<glyph unicode="S" horiz-adv-x="1173" d="M86 379l166 31q39 -137 132.5 -213t231.5 -76q143 0 225.5 70.5t82.5 187.5q0 110 -69 175t-216 93l-119 23q-203 38 -299 134.5t-96 264.5q0 75 28 143.5t81 124t139.5 88.5t193.5 33q190 0 318.5 -101.5t167.5 -275.5l-164 -30q-29 119 -110.5 190.5t-211.5 71.5 q-132 0 -206 -70.5t-74 -173.5q0 -207 258 -254l123 -22q210 -38 313.5 -140.5t103.5 -273.5q0 -178 -122 -291t-347 -113q-202 0 -341 108t-189 296z" />
<glyph unicode="T" horiz-adv-x="1046" d="M33 1288v146h981v-146h-410v-1288h-162v1288h-409z" />
<glyph unicode="U" horiz-adv-x="1241" d="M135 522v912h162v-883q0 -212 83 -321t241 -109t240.5 108.5t82.5 321.5v883h162v-912q0 -253 -128.5 -400t-356.5 -147t-357 147t-129 400z" />
<glyph unicode="V" horiz-adv-x="1167" d="M20 1434h175l389 -1178l389 1178h174l-481 -1434h-164z" />
<glyph unicode="W" horiz-adv-x="1867" d="M33 1434h176l315 -1147l330 1147h160l329 -1147l316 1147h176l-408 -1434h-163l-330 1155l-330 -1155h-164z" />
<glyph unicode="X" horiz-adv-x="1210" d="M43 0l459 743l-426 691h182l346 -562l348 562h183l-426 -691l458 -743h-180l-383 614l-381 -614h-180z" />
<glyph unicode="Y" horiz-adv-x="1146" d="M33 1434h178l362 -623l363 623h178l-461 -783v-651h-161v651z" />
<glyph unicode="Z" horiz-adv-x="1048" d="M86 0v129l686 1159h-663v146h852v-129l-687 -1160h689v-145h-877z" />
<glyph unicode="[" horiz-adv-x="657" d="M174 -190v1794h395v-136h-243v-1523h243v-135h-395z" />
<glyph unicode="\" horiz-adv-x="800" d="M0 1604h162l639 -1794h-162z" />
<glyph unicode="]" horiz-adv-x="657" d="M88 -55h244v1523h-244v136h395v-1794h-395v135z" />
<glyph unicode="^" horiz-adv-x="925" d="M66 1014l317 420h160l317 -420h-155l-242 313l-242 -313h-155z" />
<glyph unicode="_" horiz-adv-x="1024" d="M0 -225h1024v-111h-1024v111z" />
<glyph unicode="`" horiz-adv-x="761" d="M244 1495h168l188 -330h-127z" />
<glyph unicode="a" horiz-adv-x="1034" d="M86 260v27q0 61 23 112.5t71 95t133 68.5t199 25h244v51q0 135 -62.5 203.5t-175.5 68.5q-163 0 -246 -153l-151 41q59 116 163 183t240 67q178 0 281.5 -108t103.5 -284v-657h-153v125q-49 -70 -132 -110t-192 -40q-157 0 -251.5 80.5t-94.5 204.5zM240 274 q0 -72 56 -116.5t159 -44.5q207 0 301 166v184h-291q-106 0 -165.5 -50t-59.5 -128v-11z" />
<glyph unicode="b" horiz-adv-x="1046" d="M131 0v1458h154v-547q43 64 118 101t172 37q177 0 275 -119.5t98 -311.5v-212q0 -192 -98 -311.5t-275 -119.5q-97 0 -172 37t-118 101v-113h-154zM285 279q38 -77 102.5 -121.5t147.5 -44.5q260 0 260 321v156q0 321 -260 321q-83 0 -147.5 -44.5t-102.5 -121.5v-466z " />
<glyph unicode="c" horiz-adv-x="1005" d="M98 406v212q0 181 118.5 306t305.5 125q157 0 264 -89.5t142 -232.5l-154 -27q-23 101 -89.5 156t-162.5 55q-119 0 -194.5 -86t-75.5 -235v-156q0 -149 75.5 -235t194.5 -86q96 0 162.5 55t89.5 156l154 -27q-35 -143 -142 -232.5t-264 -89.5q-187 0 -305.5 125 t-118.5 306z" />
<glyph unicode="d" horiz-adv-x="1046" d="M98 406v212q0 192 98 311.5t275 119.5q97 0 172.5 -37.5t118.5 -100.5v547h153v-1458h-153v113q-43 -63 -118.5 -100.5t-172.5 -37.5q-177 0 -275 119.5t-98 311.5zM252 434q0 -321 260 -321q83 0 147.5 44.5t102.5 121.5v466q-38 77 -102.5 121.5t-147.5 44.5 q-260 0 -260 -321v-156z" />
<glyph unicode="e" horiz-adv-x="1044" d="M98 406v212q0 181 118.5 306t305.5 125t305.5 -125t118.5 -306v-163h-694v-21q0 -149 75.5 -235t194.5 -86q91 0 155.5 45.5t90.5 128.5l158 -25q-42 -132 -147 -209.5t-257 -77.5q-187 0 -305.5 125t-118.5 306zM252 580h541v10q0 149 -76 235t-195 86t-194.5 -86 t-75.5 -235v-10z" />
<glyph unicode="f" horiz-adv-x="696" d="M76 887v137h157v63q0 109 19 180t63.5 114t110 60t166.5 17h59v-137h-71q-115 0 -154 -48.5t-39 -180.5v-68h264v-137h-264v-887h-154v887h-157z" />
<glyph unicode="g" horiz-adv-x="1046" d="M98 406v212q0 192 98 311.5t275 119.5q97 0 172.5 -37.5t118.5 -100.5v113h153v-1049q0 -206 -102 -328t-293 -122q-135 0 -235 69t-144 193l152 37q29 -78 87.5 -120t139.5 -42q116 0 179 82.5t63 241.5v127q-43 -63 -118.5 -100.5t-172.5 -37.5q-177 0 -275 119.5 t-98 311.5zM252 434q0 -321 260 -321q83 0 147.5 44.5t102.5 121.5v466q-38 77 -102.5 121.5t-147.5 44.5q-260 0 -260 -321v-156z" />
<glyph unicode="h" d="M131 0v1458h154v-565q51 73 131.5 114.5t183.5 41.5q167 0 257.5 -111.5t90.5 -310.5v-627h-153v594q0 163 -55 240t-183 77q-85 0 -159 -49t-113 -135v-727h-154z" />
<glyph unicode="i" horiz-adv-x="456" d="M152 0v1024h153v-1024h-153zM152 1270v188h153v-188h-153z" />
<glyph unicode="j" horiz-adv-x="477" d="M-41 -297h66q75 0 111 43.5t36 136.5v1141h154v-1157q0 -156 -74 -228.5t-227 -72.5h-66v137zM172 1270v188h154v-188h-154z" />
<glyph unicode="k" horiz-adv-x="966" d="M131 0v1458h154v-926l229 150q106 69 152.5 145t46.5 183v14h153v-16q0 -150 -57 -246t-191 -184l353 -578h-172l-301 498l-213 -138v-360h-154z" />
<glyph unicode="l" horiz-adv-x="538" d="M152 295v1163h153v-1147q0 -174 141 -174h37v-137h-41q-290 0 -290 295z" />
<glyph unicode="m" horiz-adv-x="1736" d="M131 0v1024h154v-131q51 73 131.5 114.5t183.5 41.5q108 0 185.5 -48.5t117.5 -138.5q141 187 363 187q167 0 257.5 -111.5t90.5 -310.5v-627h-154v592q0 164 -54.5 241.5t-182.5 77.5q-179 0 -281 -196q6 -87 6 -88v-627h-153v594q0 163 -55 240t-183 77q-85 0 -159 -49 t-113 -135v-727h-154z" />
<glyph unicode="n" horiz-adv-x="1071" d="M131 0v1024h154v-131q51 73 131.5 114.5t183.5 41.5q167 0 257.5 -111.5t90.5 -310.5v-627h-153v594q0 163 -55 240t-183 77q-85 0 -159 -49t-113 -135v-727h-154z" />
<glyph unicode="o" horiz-adv-x="1044" d="M98 406v212q0 181 118.5 306t305.5 125t305.5 -125t118.5 -306v-212q0 -181 -118.5 -306t-305.5 -125t-305.5 125t-118.5 306zM252 434q0 -149 75.5 -235t194.5 -86t195 86t76 235v156q0 149 -76 235t-195 86t-194.5 -86t-75.5 -235v-156z" />
<glyph unicode="p" horiz-adv-x="1046" d="M131 -446v1470h154v-113q43 64 118 101t172 37q177 0 275 -119.5t98 -311.5v-212q0 -192 -98 -311.5t-275 -119.5q-97 0 -172 37t-118 101v-559h-154zM285 279q38 -77 102.5 -121.5t147.5 -44.5q260 0 260 321v156q0 321 -260 321q-83 0 -147.5 -44.5t-102.5 -121.5v-466 z" />
<glyph unicode="q" horiz-adv-x="1046" d="M98 406v212q0 192 98 311.5t275 119.5q97 0 172.5 -37.5t118.5 -100.5v113h153v-1470h-153v559q-43 -63 -118.5 -100.5t-172.5 -37.5q-177 0 -275 119.5t-98 311.5zM252 434q0 -321 260 -321q83 0 147.5 44.5t102.5 121.5v466q-38 77 -102.5 121.5t-147.5 44.5 q-260 0 -260 -321v-156z" />
<glyph unicode="r" horiz-adv-x="749" d="M131 0v1024h154v-129q48 69 127 111.5t176 42.5q69 0 127 -25v-137q-71 24 -146 24q-88 0 -162.5 -46.5t-121.5 -129.5v-735h-154z" />
<glyph unicode="s" horiz-adv-x="976" d="M90 285l156 28q30 -98 103 -149t171 -51q99 0 157 46.5t58 119.5t-50.5 112t-152.5 55l-100 17q-171 28 -243 102.5t-72 196.5q0 129 96.5 208t253.5 79q151 0 255 -75t144 -210l-157 -27q-21 81 -83.5 127.5t-156.5 46.5t-146.5 -41t-52.5 -110q0 -133 203 -164l100 -16 q168 -27 242 -101t74 -200q0 -135 -100 -219.5t-269 -84.5q-164 0 -275.5 80t-154.5 230z" />
<glyph unicode="t" horiz-adv-x="696" d="M43 887v137h158v291h153v-291h258v-137h-258v-578q0 -172 140 -172h137v-137h-139q-291 0 -291 295v592h-158z" />
<glyph unicode="u" d="M123 397v627h153v-594q0 -163 55 -240t183 -77q85 0 159 49t113 135v727h154v-1024h-154v131q-51 -73 -131.5 -114.5t-183.5 -41.5q-167 0 -257.5 111.5t-90.5 310.5z" />
<glyph unicode="v" horiz-adv-x="970" d="M14 1024h160l311 -829l312 829h159l-391 -1024h-159z" />
<glyph unicode="w" horiz-adv-x="1593" d="M20 1024h162l277 -815l258 815h160l258 -815l276 815h162l-359 -1024h-161l-256 809l-256 -809h-162z" />
<glyph unicode="x" horiz-adv-x="940" d="M20 0l353 530l-328 494h176l248 -379l250 379h176l-330 -494l355 -530h-177l-274 416l-272 -416h-177z" />
<glyph unicode="y" horiz-adv-x="983" d="M20 1024h164l324 -801l291 801h164l-461 -1239q-48 -128 -116.5 -172.5t-186.5 -44.5h-66v137h60q61 0 101 26.5t64 90.5l74 205z" />
<glyph unicode="z" horiz-adv-x="970" d="M78 0v123l594 764h-570v137h768v-123l-594 -764h617v-137h-815z" />
<glyph unicode="{" horiz-adv-x="663" d="M86 637v137h29q69 0 103 45t34 125v371q0 153 71 221t216 68h39v-138h-37q-138 0 -138 -157v-377q0 -176 -124 -225q63 -25 93.5 -85.5t30.5 -142.5v-375q0 -157 138 -157h37v-137h-39q-145 0 -216 67.5t-71 220.5v334q0 102 -30.5 153.5t-106.5 51.5h-29z" />
<glyph unicode="|" horiz-adv-x="587" d="M217 -190v1794h154v-1794h-154z" />
<glyph unicode="}" horiz-adv-x="663" d="M86 -53h37q137 0 137 157v375q0 82 31 142.5t94 85.5q-125 50 -125 225v377q0 157 -137 157h-37v138h39q145 0 216 -68t71 -221v-371q0 -80 34 -125t103 -45h29v-137h-29q-76 0 -106.5 -51.5t-30.5 -153.5v-334q0 -153 -71 -220.5t-216 -67.5h-39v137z" />
<glyph unicode="~" horiz-adv-x="1064" d="M49 537q10 146 87.5 221.5t197.5 75.5q57 0 106 -20.5t84 -50t66.5 -58.5t66 -49.5t70.5 -20.5q129 0 150 182l139 -10q-10 -146 -87.5 -221.5t-197.5 -75.5q-57 0 -106 20.5t-84 50t-66.5 58.5t-66 49.5t-70.5 20.5q-129 0 -150 -183z" />
<glyph unicode="&#xa1;" horiz-adv-x="546" d="M197 -199l26 820h101l26 -820v-211h-153v211zM197 831v193h153v-193h-153z" />
<glyph unicode="&#xa2;" horiz-adv-x="1005" d="M98 406v212q0 162 98 281.5t257 142.5v164h116v-159q138 -13 231.5 -101t127.5 -219l-154 -27q-20 87 -74 141t-131 66v-792q77 12 131 66.5t74 142.5l154 -27q-33 -132 -127 -219.5t-232 -100.5v-159h-116v164q-159 23 -257 142.5t-98 281.5zM252 434 q0 -126 54.5 -207.5t146.5 -105.5v782q-91 -24 -146 -106t-55 -207v-156z" />
<glyph unicode="&#xa3;" horiz-adv-x="1185" d="M98 610v127h135v258q0 218 111 340.5t305 122.5q181 0 291.5 -101t149.5 -296l-160 -27q-53 279 -279 279q-121 0 -188.5 -85t-67.5 -261v-230h422v-127h-422v-112q0 -234 -104 -353h807v-145h-994v131q129 129 129 342v137h-135z" />
<glyph unicode="&#xa4;" horiz-adv-x="1306" d="M117 219l176 180q-88 118 -88 269q0 150 88 268l-176 180l98 98l180 -182q115 78 258 78t258 -78l181 182l98 -98l-176 -180q88 -118 88 -268q0 -151 -88 -269l176 -180l-98 -98l-181 182q-115 -78 -258 -78t-258 78l-180 -182zM344 668q0 -137 89 -227.5t220 -90.5 t220.5 90.5t89.5 227.5t-89 227t-221 90q-131 0 -220 -90t-89 -227z" />
<glyph unicode="&#xa5;" horiz-adv-x="1146" d="M33 1434h178l362 -623l363 623h178l-397 -674h241v-103h-301l-4 -6v-131h305v-102h-305v-418h-161v418h-304v102h304v131l-5 6h-299v103h238z" />
<glyph unicode="&#xa6;" horiz-adv-x="589" d="M217 -190v794h154v-794h-154zM217 809v795h154v-795h-154z" />
<glyph unicode="&#xa7;" horiz-adv-x="966" d="M98 602q0 206 138 305q-117 85 -117 236q0 139 96 227t248 88q145 0 244 -74.5t139 -209.5l-156 -27q-22 82 -81 127t-146 45q-85 0 -138 -47t-53 -123q0 -74 49.5 -121t149.5 -76l104 -30q145 -43 219 -132t74 -241q0 -205 -139 -305q119 -89 119 -236q0 -139 -96 -227 t-248 -88q-145 0 -244 74.5t-139 209.5l155 27q22 -82 81.5 -127t146.5 -45q85 0 137.5 47t52.5 123q0 75 -49 121.5t-149 75.5l-105 30q-145 43 -219 132t-74 241zM252 602q0 -95 44.5 -153t141.5 -87l107 -32q48 -15 67 -23q103 85 103 242q0 94 -44.5 152t-142.5 87 l-106 33q-26 6 -68 23q-102 -87 -102 -242z" />
<glyph unicode="&#xa8;" horiz-adv-x="761" d="M117 1225v207h162v-207h-162zM483 1225v207h162v-207h-162z" />
<glyph unicode="&#xa9;" horiz-adv-x="1536" d="M98 672v90q0 321 185 508.5t485 187.5t485 -187.5t185 -508.5v-90q0 -321 -185 -509t-485 -188t-485 188t-185 509zM188 688q0 -294 155.5 -461.5t424.5 -167.5t424.5 167.5t155.5 461.5v57q0 294 -155.5 461.5t-424.5 167.5t-424.5 -167.5t-155.5 -461.5v-57zM459 618 q0 -161 84 -253.5t233 -92.5q129 0 210.5 74t100.5 199l-122 18q-15 -85 -63 -131.5t-124 -46.5q-90 0 -141 62t-51 188v164q0 126 51 188t141 62q76 0 124 -46.5t63 -132.5l122 19q-19 124 -100.5 198t-210.5 74q-149 0 -233 -92.5t-84 -253.5v-197z" />
<glyph unicode="&#xaa;" horiz-adv-x="806" d="M86 874v19q0 98 77 160.5t224 62.5h176v41q0 85 -43 132.5t-117 47.5q-115 0 -167 -104l-125 31q40 86 114.5 136t182.5 50q135 0 210.5 -78t75.5 -194v-496h-131v76q-81 -94 -221 -94q-113 0 -184.5 60t-71.5 150zM215 883q0 -47 39.5 -78t107.5 -31q62 0 115.5 29.5 t85.5 75.5v133h-174q-174 0 -174 -121v-8z" />
<glyph unicode="&#xab;" horiz-adv-x="1028" d="M86 596v86l434 285v-131l-309 -197l309 -197v-131zM508 596v86l434 285v-131l-309 -197l309 -197v-131z" />
<glyph unicode="&#xac;" horiz-adv-x="1064" d="M94 604v125h856v-467h-139v342h-717z" />
<glyph unicode="&#xad;" horiz-adv-x="817" d="M104 598v137h609v-137h-609z" />
<glyph unicode="&#xae;" horiz-adv-x="1536" d="M98 672v90q0 321 185 508.5t485 187.5t485 -187.5t185 -508.5v-90q0 -321 -185 -509t-485 -188t-485 188t-185 509zM188 688q0 -294 155.5 -461.5t424.5 -167.5t424.5 167.5t155.5 461.5v57q0 294 -155.5 461.5t-424.5 167.5t-424.5 -167.5t-155.5 -461.5v-57zM489 289 v854h322q111 0 192.5 -66.5t81.5 -187.5q0 -94 -50.5 -155.5t-129.5 -84.5l209 -360h-137l-197 346h-162v-346h-129zM618 752h170q78 0 121 35t43 106q0 67 -44.5 102t-119.5 35h-170v-278z" />
<glyph unicode="&#xaf;" horiz-adv-x="761" d="M96 1268v118h570v-118h-570z" />
<glyph unicode="&#xb0;" horiz-adv-x="708" d="M90 1182q0 117 72.5 192.5t191.5 75.5t191.5 -75.5t72.5 -192.5t-73 -193t-191 -76t-191 76t-73 193zM217 1182q0 -66 38.5 -108t98.5 -42t99 42t39 108t-39 107.5t-99 41.5t-98.5 -41.5t-38.5 -107.5z" />
<glyph unicode="&#xb1;" horiz-adv-x="1064" d="M104 0v125h857v-125h-857zM104 639v125h359v377h139v-377h359v-125h-359v-377h-139v377h-359z" />
<glyph unicode="&#xb2;" horiz-adv-x="733" d="M80 485v99l381 436q63 71 63 147q0 77 -42.5 120.5t-108.5 43.5t-109 -44t-43 -120v-37l-141 11v28q0 120 80.5 200.5t212.5 80.5q127 0 209 -79t82 -202q0 -67 -24 -119.5t-79 -113.5l-293 -332h396v-119h-584z" />
<glyph unicode="&#xb3;" horiz-adv-x="733" d="M74 780l139 11q0 -98 42 -150.5t114 -52.5q67 0 111 44t44 132q0 190 -145 190q-39 0 -84 -20l-72 82l232 299h-357v119h531v-105l-217 -274h18q98 0 166 -75.5t68 -217.5q0 -133 -83.5 -213t-211.5 -80q-135 0 -215 87t-80 224z" />
<glyph unicode="&#xb4;" horiz-adv-x="761" d="M162 1165l188 330h168l-229 -330h-127z" />
<glyph unicode="&#xb5;" horiz-adv-x="1079" d="M131 -446v1470h154v-592q0 -164 54.5 -241.5t182.5 -77.5q85 0 159 51t114 137v723h153v-1024h-153v143q-47 -77 -122 -122.5t-165 -45.5q-148 0 -223 107v-528h-154z" />
<glyph unicode="&#xb6;" horiz-adv-x="1075" d="M102 989v10q0 213 108.5 324t313.5 111h373v-1702h-102v1587h-107v-1587h-102v821h-49q-206 0 -320.5 112t-114.5 324z" />
<glyph unicode="&#xb7;" horiz-adv-x="536" d="M180 567v201h176v-201h-176z" />
<glyph unicode="&#xb8;" horiz-adv-x="761" d="M166 -395l72 92q58 -51 124 -51q46 0 70.5 22t24.5 58q0 43 -43 70.5t-127 31.5q-1 3 -4 8t-4 6l67 158h127l-45 -98q166 -44 166 -185q0 -87 -58 -139.5t-165 -52.5q-125 0 -205 80z" />
<glyph unicode="&#xb9;" horiz-adv-x="733" d="M135 485v119h195v684l-195 -86v127l219 105h115v-830h193v-119h-527z" />
<glyph unicode="&#xba;" horiz-adv-x="806" d="M88 973v168q0 128 88 218.5t227 90.5t227.5 -90.5t88.5 -218.5v-168q0 -128 -88.5 -218.5t-227.5 -90.5t-227 90.5t-88 218.5zM217 995q0 -102 50.5 -160.5t135.5 -58.5t136 58.5t51 160.5v123q0 102 -51 160.5t-136 58.5t-135.5 -58.5t-50.5 -160.5v-123z" />
<glyph unicode="&#xbb;" horiz-adv-x="1028" d="M86 311v131l309 197l-309 197v131l434 -285v-86zM508 311v131l309 197l-309 197v131l434 -285v-86z" />
<glyph unicode="&#xbc;" horiz-adv-x="1812" d="M135 485v119h195v684l-195 -86v127l219 105h115v-830h193v-119h-527zM485 0l703 1434h139l-702 -1434h-140zM1130 203v106l383 639h142v-626h104v-119h-104v-203h-137v203h-388zM1282 322h236v393z" />
<glyph unicode="&#xbd;" horiz-adv-x="1812" d="M135 485v119h195v684l-195 -86v127l219 105h115v-830h193v-119h-527zM485 0l703 1434h139l-702 -1434h-140zM1159 0v98l381 437q64 73 64 147q0 77 -43 120.5t-109 43.5t-109 -44t-43 -120v-37l-141 10v29q0 120 80.5 200.5t212.5 80.5q127 0 209 -79t82 -202 q0 -67 -24 -119.5t-79 -113.5l-292 -332h395v-119h-584z" />
<glyph unicode="&#xbe;" horiz-adv-x="1812" d="M74 780l139 11q0 -98 42 -150.5t114 -52.5q67 0 111 44t44 132q0 190 -145 190q-39 0 -84 -20l-72 82l232 299h-357v119h531v-105l-217 -274h18q98 0 166 -75.5t68 -217.5q0 -133 -83.5 -213t-211.5 -80q-135 0 -215 87t-80 224zM485 0l703 1434h139l-702 -1434h-140z M1130 203v106l383 639h142v-626h104v-119h-104v-203h-137v203h-388zM1282 322h236v393z" />
<glyph unicode="&#xbf;" horiz-adv-x="1040" d="M131 -37q0 113 44 196t134 165q85 78 118.5 136.5t33.5 143.5v49h153v-63q0 -102 -40.5 -177.5t-145.5 -168.5q-80 -71 -111.5 -133.5t-31.5 -143.5q0 -125 66 -194.5t177 -69.5q106 0 173.5 66.5t82.5 193.5l154 -14q-19 -172 -128.5 -277.5t-283.5 -105.5 q-177 0 -286 109.5t-109 287.5zM461 831v193h153v-193h-153z" />
<glyph unicode="&#xc0;" horiz-adv-x="1167" d="M12 0l492 1434h160l491 -1434h-174l-117 354h-563l-115 -354h-174zM330 1892h168l188 -330h-127zM348 500h469l-233 717z" />
<glyph unicode="&#xc1;" horiz-adv-x="1167" d="M12 0l492 1434h160l491 -1434h-174l-117 354h-563l-115 -354h-174zM348 500h469l-233 717zM481 1563l189 329h168l-230 -329h-127z" />
<glyph unicode="&#xc2;" horiz-adv-x="1167" d="M12 0l492 1434h160l491 -1434h-174l-117 354h-563l-115 -354h-174zM258 1562l258 330h136l258 -330h-138l-188 203l-188 -203h-138zM348 500h469l-233 717z" />
<glyph unicode="&#xc3;" horiz-adv-x="1167" d="M12 0h174l115 354h563l117 -354h174l-491 1434h-160zM264 1632q13 101 62.5 152t126.5 51q37 0 76.5 -17.5t67.5 -38t60 -38t56 -17.5q31 0 48.5 22.5t26.5 72.5l117 -13q-13 -101 -62 -151.5t-126 -50.5q-46 0 -96 27.5t-92.5 55t-71.5 27.5q-31 0 -49 -22.5t-27 -71.5z M348 500l236 717l233 -717h-469z" />
<glyph unicode="&#xc4;" horiz-adv-x="1167" d="M12 0h174l115 354h563l117 -354h174l-491 1434h-160zM319 1622v207h162v-207h-162zM348 500l236 717l233 -717h-469zM686 1622v207h162v-207h-162z" />
<glyph unicode="&#xc5;" horiz-adv-x="1167" d="M12 0l492 1434h160l491 -1434h-174l-117 354h-563l-115 -354h-174zM348 500h469l-233 717zM373 1726q0 94 61 150.5t150 56.5t150 -56.5t61 -150.5t-61 -150.5t-150 -56.5t-150 56.5t-61 150.5zM488 1726q0 -48 27 -76t69 -28t69 28t27 76t-27 76.5t-69 28.5t-69 -28.5 t-27 -76.5z" />
<glyph unicode="&#xc6;" horiz-adv-x="1738" d="M-20 0l710 1434h948v-146h-690v-477h608v-145h-608v-521h690v-145h-852v354h-456l-172 -354h-178zM401 500h385v788z" />
<glyph unicode="&#xc7;" horiz-adv-x="1193" d="M109 541v352q0 253 136 409t363 156q201 0 334 -120t162 -324l-160 -27q-28 158 -115.5 242t-220.5 84q-155 0 -246.5 -118t-91.5 -327v-303q0 -209 91.5 -326.5t246.5 -117.5q133 0 220.5 83t115.5 240l160 -26q-26 -183 -137 -298.5t-281 -137.5l-35 -80 q166 -44 166 -185q0 -87 -58 -139.5t-165 -52.5q-125 0 -205 80l72 92q58 -51 125 -51q46 0 70 22t24 58q0 43 -43 70.5t-127 31.5q-1 3 -4.5 8t-3.5 6l57 135q-206 17 -328 171t-122 393z" />
<glyph unicode="&#xc8;" horiz-adv-x="1103" d="M152 0v1434h852v-146h-691v-477h609v-145h-609v-521h691v-145h-852zM346 1892h168l188 -330h-127z" />
<glyph unicode="&#xc9;" horiz-adv-x="1103" d="M152 0v1434h852v-146h-691v-477h609v-145h-609v-521h691v-145h-852zM445 1562l188 330h168l-229 -330h-127z" />
<glyph unicode="&#xca;" horiz-adv-x="1103" d="M152 0v1434h852v-146h-691v-477h609v-145h-609v-521h691v-145h-852zM256 1563l258 329h135l258 -329h-137l-188 202l-189 -202h-137z" />
<glyph unicode="&#xcb;" horiz-adv-x="1103" d="M152 0v1434h852v-146h-691v-477h609v-145h-609v-521h691v-145h-852zM307 1622v207h162v-207h-162zM673 1622v207h162v-207h-162z" />
<glyph unicode="&#xcc;" horiz-adv-x="464" d="M-27 1892h168l189 -329h-127zM152 0v1434h161v-1434h-161z" />
<glyph unicode="&#xcd;" horiz-adv-x="464" d="M135 1562l188 330h168l-229 -330h-127zM152 0v1434h161v-1434h-161z" />
<glyph unicode="&#xce;" horiz-adv-x="464" d="M-95 1562l258 330h136l258 -330h-138l-188 203l-188 -203h-138zM152 0v1434h161v-1434h-161z" />
<glyph unicode="&#xcf;" horiz-adv-x="464" d="M-33 1622v207h162v-207h-162zM152 0v1434h161v-1434h-161zM334 1622v207h162v-207h-162z" />
<glyph unicode="&#xd0;" horiz-adv-x="1210" d="M25 653v127h127v654h438q228 0 365 -145t137 -396v-352q0 -251 -137 -396t-365 -145h-438v653h-127zM313 145h265q161 0 256.5 107t95.5 313v303q0 206 -95.5 313t-256.5 107h-265v-508h275v-127h-275v-508z" />
<glyph unicode="&#xd1;" horiz-adv-x="1318" d="M152 0v1434h153l701 -1137v1137h161v-1434h-153l-701 1137v-1137h-161zM340 1632q13 101 62 152t126 51q37 0 76.5 -17.5t67.5 -38t60 -38t56 -17.5q59 0 76 95l117 -13q-13 -101 -62 -151.5t-126 -50.5q-46 0 -96 27.5t-93 55t-72 27.5q-31 0 -48.5 -22t-26.5 -72z" />
<glyph unicode="&#xd2;" horiz-adv-x="1216" d="M109 541v352q0 253 136 409t363 156t363.5 -156.5t136.5 -408.5v-352q0 -253 -136.5 -409.5t-363.5 -156.5t-363 156.5t-136 409.5zM270 565q0 -209 91.5 -326.5t246.5 -117.5t246.5 117.5t91.5 326.5v303q0 209 -91.5 327t-246.5 118t-246.5 -118t-91.5 -327v-303z M379 1892h168l188 -330h-127z" />
<glyph unicode="&#xd3;" horiz-adv-x="1216" d="M109 541v352q0 253 136 409t363 156t363.5 -156.5t136.5 -408.5v-352q0 -253 -136.5 -409.5t-363.5 -156.5t-363 156.5t-136 409.5zM270 565q0 -209 91.5 -326.5t246.5 -117.5t246.5 117.5t91.5 326.5v303q0 209 -91.5 327t-246.5 118t-246.5 -118t-91.5 -327v-303z M481 1562l188 330h168l-229 -330h-127z" />
<glyph unicode="&#xd4;" horiz-adv-x="1216" d="M109 541v352q0 253 136 409t363 156t363.5 -156.5t136.5 -408.5v-352q0 -253 -136.5 -409.5t-363.5 -156.5t-363 156.5t-136 409.5zM270 565q0 -209 91.5 -326.5t246.5 -117.5t246.5 117.5t91.5 326.5v303q0 209 -91.5 327t-246.5 118t-246.5 -118t-91.5 -327v-303z M282 1562l258 330h136l258 -330h-138l-188 203l-188 -203h-138z" />
<glyph unicode="&#xd5;" horiz-adv-x="1216" d="M109 541v352q0 253 136 409t363 156t363.5 -156.5t136.5 -408.5v-352q0 -253 -136.5 -409.5t-363.5 -156.5t-363 156.5t-136 409.5zM270 565q0 -209 91.5 -326.5t246.5 -117.5t246.5 117.5t91.5 326.5v303q0 209 -91.5 327t-246.5 118t-246.5 -118t-91.5 -327v-303z M288 1632q13 101 62.5 152t126.5 51q37 0 76.5 -17.5t67.5 -38t60 -38t56 -17.5q31 0 49 22.5t27 71.5l116 -12q-13 -101 -62 -152t-126 -51q-37 0 -76.5 17.5t-67.5 38t-60 38t-56 17.5q-31 0 -49 -22.5t-27 -71.5z" />
<glyph unicode="&#xd6;" horiz-adv-x="1216" d="M109 541q0 -253 136 -409.5t363 -156.5t363.5 156.5t136.5 409.5v352q0 252 -136.5 408.5t-363.5 156.5t-363 -156t-136 -409v-352zM270 565v303q0 209 91.5 327t246.5 118t246.5 -118t91.5 -327v-303q0 -209 -91.5 -326.5t-246.5 -117.5t-246.5 117.5t-91.5 326.5z M344 1622v207h162v-207h-162zM711 1622v207h161v-207h-161z" />
<glyph unicode="&#xd7;" horiz-adv-x="1064" d="M137 369l299 299l-299 299l99 96l296 -299l297 299l99 -96l-299 -299l299 -299l-99 -97l-297 297l-296 -297z" />
<glyph unicode="&#xd8;" horiz-adv-x="1216" d="M109 541v352q0 253 136 409t363 156q163 0 285 -86l68 127h133l-113 -211q127 -156 127 -395v-352q0 -253 -136.5 -409.5t-363.5 -156.5q-162 0 -284 86l-68 -127h-133l113 209q-127 155 -127 398zM270 565q0 -150 52 -260l497 928q-86 80 -211 80q-155 0 -246.5 -118 t-91.5 -327v-303zM397 199q84 -78 211 -78q155 0 246.5 117.5t91.5 326.5v303q0 152 -51 260z" />
<glyph unicode="&#xd9;" horiz-adv-x="1241" d="M135 522v912h162v-883q0 -212 83 -321t241 -109t240.5 108.5t82.5 321.5v883h162v-912q0 -253 -128.5 -400t-356.5 -147t-357 147t-129 400zM381 1892h168l188 -330h-127z" />
<glyph unicode="&#xda;" horiz-adv-x="1241" d="M135 522v912h162v-883q0 -212 83 -321t241 -109t240.5 108.5t82.5 321.5v883h162v-912q0 -253 -128.5 -400t-356.5 -147t-357 147t-129 400zM504 1562l188 330h168l-229 -330h-127z" />
<glyph unicode="&#xdb;" horiz-adv-x="1241" d="M135 522v912h162v-883q0 -212 83 -321t241 -109t240.5 108.5t82.5 321.5v883h162v-912q0 -253 -128.5 -400t-356.5 -147t-357 147t-129 400zM295 1562l258 330h136l258 -330h-138l-188 203l-188 -203h-138z" />
<glyph unicode="&#xdc;" horiz-adv-x="1241" d="M135 522q0 -253 129 -400t357 -147t356.5 147t128.5 400v912h-162v-883q0 -213 -82.5 -321.5t-240.5 -108.5t-241 109t-83 321v883h-162v-912zM356 1622v207h162v-207h-162zM723 1622v207h162v-207h-162z" />
<glyph unicode="&#xdd;" horiz-adv-x="1146" d="M33 1434h178l362 -623l363 623h178l-461 -783v-651h-161v651zM449 1562l188 330h168l-229 -330h-127z" />
<glyph unicode="&#xde;" horiz-adv-x="1183" d="M152 0v1434h161v-291h336q86 0 164.5 -26.5t142.5 -77.5t102 -134.5t38 -187.5t-38 -187.5t-102 -134.5t-142.5 -77.5t-164.5 -26.5h-336v-291h-161zM313 436h312q137 0 223 73t86 208q0 136 -85.5 208t-223.5 72h-312v-561z" />
<glyph unicode="&#xdf;" horiz-adv-x="1140" d="M143 0v999q0 222 115.5 340.5t308.5 118.5q181 0 293.5 -111t112.5 -274v-20q0 -103 -51 -181.5t-150 -117.5q311 -81 311 -383v-25q0 -173 -111 -272t-302 -99q-155 0 -262 62l41 135q94 -51 215 -51t189.5 59t68.5 172v19q0 138 -101.5 213t-277.5 75l-23 119 q291 62 291 277v10q0 109 -68 178.5t-180 69.5q-121 0 -189.5 -83.5t-68.5 -258.5v-971h-162z" />
<glyph unicode="&#xe0;" horiz-adv-x="1034" d="M86 260v27q0 61 23 112.5t71 95t133 68.5t199 25h244v51q0 135 -62.5 203.5t-175.5 68.5q-163 0 -246 -153l-151 41q59 116 163 183t240 67q178 0 281.5 -108t103.5 -284v-657h-153v125q-49 -70 -132 -110t-192 -40q-157 0 -251.5 80.5t-94.5 204.5zM240 274 q0 -72 56 -116.5t159 -44.5q207 0 301 166v184h-291q-106 0 -165.5 -50t-59.5 -128v-11zM318 1485h168l188 -330h-127z" />
<glyph unicode="&#xe1;" horiz-adv-x="1034" d="M86 260v27q0 61 23 112.5t71 95t133 68.5t199 25h244v51q0 135 -62.5 203.5t-175.5 68.5q-163 0 -246 -153l-151 41q59 116 163 183t240 67q178 0 281.5 -108t103.5 -284v-657h-153v125q-49 -70 -132 -110t-192 -40q-157 0 -251.5 80.5t-94.5 204.5zM240 274 q0 -72 56 -116.5t159 -44.5q207 0 301 166v184h-291q-106 0 -165.5 -50t-59.5 -128v-11zM375 1155l188 330h168l-229 -330h-127z" />
<glyph unicode="&#xe2;" horiz-adv-x="1034" d="M86 260v27q0 61 23 112.5t71 95t133 68.5t199 25h244v51q0 135 -62.5 203.5t-175.5 68.5q-163 0 -246 -153l-151 41q59 116 163 183t240 67q178 0 281.5 -108t103.5 -284v-657h-153v125q-49 -70 -132 -110t-192 -40q-157 0 -251.5 80.5t-94.5 204.5zM190 1155l258 330 h136l258 -330h-138l-188 203l-188 -203h-138zM240 274q0 -72 56 -116.5t159 -44.5q207 0 301 166v184h-291q-106 0 -165.5 -50t-59.5 -128v-11z" />
<glyph unicode="&#xe3;" horiz-adv-x="1034" d="M86 260v27q0 61 23 112.5t71 95t133 68.5t199 25h244v51q0 135 -62.5 203.5t-175.5 68.5q-163 0 -246 -153l-151 41q59 116 163 183t240 67q178 0 281.5 -108t103.5 -284v-657h-153v125q-49 -70 -132 -110t-192 -40q-157 0 -251.5 80.5t-94.5 204.5zM195 1225 q13 101 62 151.5t126 50.5q46 0 96 -27.5t92.5 -55t71.5 -27.5q31 0 49 22.5t27 71.5l117 -12q-13 -101 -62.5 -152t-126.5 -51q-46 0 -96 28t-92.5 55.5t-71.5 27.5q-59 0 -76 -95zM240 274q0 -72 56 -116.5t159 -44.5q207 0 301 166v184h-291q-106 0 -165.5 -50 t-59.5 -128v-11z" />
<glyph unicode="&#xe4;" horiz-adv-x="1034" d="M86 260v27q0 61 23 112.5t71 95t133 68.5t199 25h244v51q0 135 -62.5 203.5t-175.5 68.5q-163 0 -246 -153l-151 41q59 116 163 183t240 67q178 0 281.5 -108t103.5 -284v-657h-153v125q-49 -70 -132 -110t-192 -40q-157 0 -251.5 80.5t-94.5 204.5zM240 274 q0 -72 56 -116.5t159 -44.5q207 0 301 166v184h-291q-106 0 -165.5 -50t-59.5 -128v-11zM252 1214v207h162v-207h-162zM618 1214v207h162v-207h-162z" />
<glyph unicode="&#xe5;" horiz-adv-x="1034" d="M86 260v27q0 61 23 112.5t71 95t133 68.5t199 25h244v51q0 135 -62.5 203.5t-175.5 68.5q-163 0 -246 -153l-151 41q59 116 163 183t240 67q178 0 281.5 -108t103.5 -284v-657h-153v125q-49 -70 -132 -110t-192 -40q-157 0 -251.5 80.5t-94.5 204.5zM240 274 q0 -72 56 -116.5t159 -44.5q207 0 301 166v184h-291q-106 0 -165.5 -50t-59.5 -128v-11zM305 1319q0 94 61 150.5t150 56.5t150 -56.5t61 -150.5t-61 -150.5t-150 -56.5t-150 56.5t-61 150.5zM420 1319q0 -48 27 -76t69 -28t69 28t27 76t-27 76.5t-69 28.5t-69 -28.5 t-27 -76.5z" />
<glyph unicode="&#xe6;" horiz-adv-x="1703" d="M86 260v27q0 61 23 112.5t71 95t133 68.5t199 25h244v51q0 135 -62.5 203.5t-175.5 68.5q-163 0 -246 -153l-151 41q59 116 163 183t240 67q110 0 193.5 -46.5t128.5 -134.5q56 88 142 134.5t194 46.5q187 0 305.5 -125t118.5 -306v-163h-695v-21q0 -149 76 -235t195 -86 q91 0 155 45.5t90 128.5l158 -25q-42 -133 -146.5 -210t-256.5 -77q-116 0 -208 50t-147 137q-144 -187 -395 -187q-157 0 -251.5 80.5t-94.5 204.5zM240 274q0 -72 56 -116.5t159 -44.5q207 0 301 166v184h-291q-106 0 -165.5 -50t-59.5 -128v-11zM911 580h541v10 q0 149 -75.5 235t-194.5 86t-195 -86t-76 -235v-10z" />
<glyph unicode="&#xe7;" horiz-adv-x="1005" d="M98 406v212q0 181 118.5 306t305.5 125q157 0 264 -89.5t142 -232.5l-154 -27q-23 101 -89.5 156t-162.5 55q-119 0 -194.5 -86t-75.5 -235v-156q0 -149 75.5 -235t194.5 -86q96 0 162.5 55t89.5 156l154 -27q-32 -124 -117 -209t-211 -106l-37 -80q166 -44 166 -185 q0 -87 -58 -139.5t-165 -52.5q-125 0 -205 80l72 92q58 -51 125 -51q46 0 70 22t24 58q0 43 -43 70.5t-127 31.5q-1 3 -4.5 8t-3.5 6l57 135q-166 17 -269.5 139.5t-103.5 289.5z" />
<glyph unicode="&#xe8;" horiz-adv-x="1044" d="M98 406v212q0 181 118.5 306t305.5 125t305.5 -125t118.5 -306v-163h-694v-21q0 -149 75.5 -235t194.5 -86q91 0 155.5 45.5t90.5 128.5l158 -25q-42 -132 -147 -209.5t-257 -77.5q-187 0 -305.5 125t-118.5 306zM252 580h541v10q0 149 -76 235t-195 86t-194.5 -86 t-75.5 -235v-10zM297 1485h168l188 -330h-127z" />
<glyph unicode="&#xe9;" horiz-adv-x="1044" d="M98 406v212q0 181 118.5 306t305.5 125t305.5 -125t118.5 -306v-163h-694v-21q0 -149 75.5 -235t194.5 -86q91 0 155.5 45.5t90.5 128.5l158 -25q-42 -132 -147 -209.5t-257 -77.5q-187 0 -305.5 125t-118.5 306zM252 580h541v10q0 149 -76 235t-195 86t-194.5 -86 t-75.5 -235v-10zM393 1155l188 330h168l-229 -330h-127z" />
<glyph unicode="&#xea;" horiz-adv-x="1044" d="M98 406v212q0 181 118.5 306t305.5 125t305.5 -125t118.5 -306v-163h-694v-21q0 -149 75.5 -235t194.5 -86q91 0 155.5 45.5t90.5 128.5l158 -25q-42 -132 -147 -209.5t-257 -77.5q-187 0 -305.5 125t-118.5 306zM190 1155l259 330h135l258 -330h-137l-189 203l-188 -203 h-138zM252 580h541v10q0 149 -76 235t-195 86t-194.5 -86t-75.5 -235v-10z" />
<glyph unicode="&#xeb;" horiz-adv-x="1044" d="M98 406v212q0 181 118.5 306t305.5 125t305.5 -125t118.5 -306v-163h-694v-21q0 -149 75.5 -235t194.5 -86q91 0 155.5 45.5t90.5 128.5l158 -25q-42 -132 -147 -209.5t-257 -77.5q-187 0 -305.5 125t-118.5 306zM252 580h541v10q0 149 -76 235t-195 86t-194.5 -86 t-75.5 -235v-10zM252 1215v207h162v-207h-162zM618 1215v207h162v-207h-162z" />
<glyph unicode="&#xec;" horiz-adv-x="456" d="M-32 1485h168l188 -330h-127zM152 0v1024h153v-1024h-153z" />
<glyph unicode="&#xed;" horiz-adv-x="456" d="M133 1155l188 330h168l-229 -330h-127zM152 0v1024h153v-1024h-153z" />
<glyph unicode="&#xee;" horiz-adv-x="456" d="M-99 1155l258 330h136l258 -330h-138l-188 203l-188 -203h-138zM152 0v1024h153v-1024h-153z" />
<glyph unicode="&#xef;" horiz-adv-x="456" d="M-37 1214v207h162v-207h-162zM152 0v1024h153v-1024h-153zM330 1214v207h162v-207h-162z" />
<glyph unicode="&#xf0;" horiz-adv-x="1044" d="M98 406v212q0 185 117.5 308t298.5 123q75 0 129 -31l-100 184l-258 -57l-25 98l232 51l-89 164h168l70 -131l217 49l25 -98l-191 -43q25 -47 67 -123t62.5 -115t49 -99.5t42 -102.5t23.5 -96t10 -107v-186q0 -181 -118.5 -306t-305.5 -125t-305.5 125t-118.5 306z M252 434q0 -149 75.5 -235t194.5 -86t195 86t76 235v156q0 149 -76 235t-195 86t-194.5 -86t-75.5 -235v-156z" />
<glyph unicode="&#xf1;" horiz-adv-x="1071" d="M131 0v1024h154v-131q51 73 131.5 114.5t183.5 41.5q167 0 257.5 -111.5t90.5 -310.5v-627h-153v594q0 163 -55 240t-183 77q-85 0 -159 -49t-113 -135v-727h-154zM215 1225q13 101 62 151.5t126 50.5q46 0 96 -27.5t93 -55t72 -27.5q31 0 48.5 22t26.5 72l117 -12 q-13 -101 -62 -152t-126 -51q-46 0 -96 28t-92.5 55.5t-71.5 27.5q-59 0 -76 -95z" />
<glyph unicode="&#xf2;" horiz-adv-x="1044" d="M98 406v212q0 181 118.5 306t305.5 125t305.5 -125t118.5 -306v-212q0 -181 -118.5 -306t-305.5 -125t-305.5 125t-118.5 306zM252 434q0 -149 75.5 -235t194.5 -86t195 86t76 235v156q0 149 -76 235t-195 86t-194.5 -86t-75.5 -235v-156zM295 1485h168l188 -330h-127z " />
<glyph unicode="&#xf3;" horiz-adv-x="1044" d="M98 406v212q0 181 118.5 306t305.5 125t305.5 -125t118.5 -306v-212q0 -181 -118.5 -306t-305.5 -125t-305.5 125t-118.5 306zM252 434q0 -149 75.5 -235t194.5 -86t195 86t76 235v156q0 149 -76 235t-195 86t-194.5 -86t-75.5 -235v-156zM393 1155l188 330h168 l-229 -330h-127z" />
<glyph unicode="&#xf4;" horiz-adv-x="1044" d="M98 406v212q0 181 118.5 306t305.5 125t305.5 -125t118.5 -306v-212q0 -181 -118.5 -306t-305.5 -125t-305.5 125t-118.5 306zM196 1155l258 330h136l258 -330h-138l-188 203l-188 -203h-138zM252 434q0 -149 75.5 -235t194.5 -86t195 86t76 235v156q0 149 -76 235 t-195 86t-194.5 -86t-75.5 -235v-156z" />
<glyph unicode="&#xf5;" horiz-adv-x="1044" d="M98 406v212q0 181 118.5 306t305.5 125t305.5 -125t118.5 -306v-212q0 -181 -118.5 -306t-305.5 -125t-305.5 125t-118.5 306zM202 1225q13 101 62.5 152t126.5 51q46 0 96 -28t92.5 -55.5t71.5 -27.5q31 0 49 22.5t27 71.5l116 -12q-13 -101 -62 -152t-126 -51 q-46 0 -96 28t-92.5 55.5t-71.5 27.5q-31 0 -49 -22.5t-27 -71.5zM252 434q0 -149 75.5 -235t194.5 -86t195 86t76 235v156q0 149 -76 235t-195 86t-194.5 -86t-75.5 -235v-156z" />
<glyph unicode="&#xf6;" horiz-adv-x="1044" d="M98 406q0 -181 118.5 -306t305.5 -125t305.5 125t118.5 306v212q0 181 -118.5 306t-305.5 125t-305.5 -125t-118.5 -306v-212zM252 434v156q0 149 75.5 235t194.5 86t195 -86t76 -235v-156q0 -149 -76 -235t-195 -86t-194.5 86t-75.5 235zM258 1214v207h162v-207h-162z M625 1214v207h161v-207h-161z" />
<glyph unicode="&#xf7;" horiz-adv-x="1064" d="M104 604v125h857v-125h-857zM444 217v201h177v-201h-177zM444 915v201h177v-201h-177z" />
<glyph unicode="&#xf8;" horiz-adv-x="1044" d="M98 406v212q0 181 118.5 306t305.5 125q110 0 201 -48l53 101h125l-88 -164q63 -60 98 -143.5t35 -176.5v-212q0 -181 -118.5 -306t-305.5 -125q-112 0 -200 45l-54 -98h-125l88 164q-63 59 -98 142t-35 178zM252 434q0 -124 55 -207l348 650q-58 34 -133 34 q-119 0 -194.5 -86t-75.5 -235v-156zM389 147q53 -34 133 -34q119 0 195 86t76 235v156q0 122 -56 207z" />
<glyph unicode="&#xf9;" d="M123 397v627h153v-594q0 -163 55 -240t183 -77q85 0 159 49t113 135v727h154v-1024h-154v131q-51 -73 -131.5 -114.5t-183.5 -41.5q-167 0 -257.5 111.5t-90.5 310.5zM303 1485h168l188 -330h-127z" />
<glyph unicode="&#xfa;" d="M123 397v627h153v-594q0 -163 55 -240t183 -77q85 0 159 49t113 135v727h154v-1024h-154v131q-51 -73 -131.5 -114.5t-183.5 -41.5q-167 0 -257.5 111.5t-90.5 310.5zM412 1155l188 330h168l-229 -330h-127z" />
<glyph unicode="&#xfb;" d="M123 397v627h153v-594q0 -163 55 -240t183 -77q85 0 159 49t113 135v727h154v-1024h-154v131q-51 -73 -131.5 -114.5t-183.5 -41.5q-167 0 -257.5 111.5t-90.5 310.5zM205 1155l258 330h136l258 -330h-138l-188 203l-188 -203h-138z" />
<glyph unicode="&#xfc;" d="M123 397v627h153v-594q0 -163 55 -240t183 -77q85 0 159 49t113 135v727h154v-1024h-154v131q-51 -73 -131.5 -114.5t-183.5 -41.5q-167 0 -257.5 111.5t-90.5 310.5zM266 1214v207h162v-207h-162zM633 1214v207h162v-207h-162z" />
<glyph unicode="&#xfd;" horiz-adv-x="983" d="M20 1024h164l324 -801l291 801h164l-461 -1239q-48 -128 -116.5 -172.5t-186.5 -44.5h-66v137h60q61 0 101 26.5t64 90.5l74 205zM377 1155l188 330h168l-229 -330h-127z" />
<glyph unicode="&#xfe;" horiz-adv-x="1046" d="M131 -446v1904h154v-547q43 64 118 101t172 37q177 0 275 -119.5t98 -311.5v-212q0 -192 -98 -311.5t-275 -119.5q-97 0 -172 37t-118 101v-559h-154zM285 279q38 -77 102.5 -121.5t147.5 -44.5q260 0 260 321v156q0 321 -260 321q-83 0 -147.5 -44.5t-102.5 -121.5v-466 z" />
<glyph unicode="&#xff;" horiz-adv-x="983" d="M20 1024h164l324 -801l291 801h164l-461 -1239q-48 -128 -116.5 -172.5t-186.5 -44.5h-66v137h60q61 0 101 26.5t64 90.5l74 205zM234 1215v207h162v-207h-162zM600 1215v207h162v-207h-162z" />
<glyph unicode="&#x152;" horiz-adv-x="1839" d="M109 541v352q0 251 136.5 396t364.5 145h1129v-146h-690v-477h608v-145h-608v-521h690v-145h-1129q-228 0 -364.5 145t-136.5 396zM270 565q0 -206 96 -313t257 -107h264v1143h-264q-161 0 -257 -107t-96 -313v-303z" />
<glyph unicode="&#x153;" horiz-adv-x="1738" d="M98 406v212q0 181 118.5 306t305.5 125q115 0 205 -51t141 -146q51 95 142.5 146t206.5 51q124 0 221.5 -58.5t149.5 -156.5t52 -216v-163h-694v-21q0 -149 76 -235t195 -86q91 0 155 45.5t90 128.5l158 -25q-42 -133 -146.5 -210t-256.5 -77q-115 0 -206.5 51 t-142.5 146q-51 -95 -141 -146t-205 -51q-187 0 -305.5 125t-118.5 306zM252 434q0 -149 75.5 -235t194.5 -86t195 86t76 235v156q0 149 -76 235t-195 86t-194.5 -86t-75.5 -235v-156zM946 580h541v10q0 149 -75.5 235t-194.5 86t-195 -86t-76 -235v-10z" />
<glyph unicode="&#x178;" horiz-adv-x="1146" d="M33 1434h178l362 -623l363 623h178l-461 -783v-651h-161v651zM310 1622v207h162v-207h-162zM676 1622v207h162v-207h-162z" />
<glyph unicode="&#x2c6;" horiz-adv-x="761" d="M55 1165l258 330h136l258 -330h-138l-188 203l-188 -203h-138z" />
<glyph unicode="&#x2dc;" horiz-adv-x="761" d="M59 1237q13 101 62.5 152t126.5 51q46 0 96 -28t92.5 -55.5t71.5 -27.5q31 0 49 22.5t27 71.5l116 -12q-13 -101 -62 -152t-126 -51q-46 0 -96 28t-92.5 55.5t-71.5 27.5q-31 0 -49 -22.5t-27 -71.5z" />
<glyph unicode="&#x2000;" horiz-adv-x="966" />
<glyph unicode="&#x2001;" horiz-adv-x="1933" />
<glyph unicode="&#x2002;" horiz-adv-x="966" />
<glyph unicode="&#x2003;" horiz-adv-x="1933" />
<glyph unicode="&#x2004;" horiz-adv-x="644" />
<glyph unicode="&#x2005;" horiz-adv-x="483" />
<glyph unicode="&#x2006;" horiz-adv-x="322" />
<glyph unicode="&#x2007;" horiz-adv-x="322" />
<glyph unicode="&#x2008;" horiz-adv-x="241" />
<glyph unicode="&#x2009;" horiz-adv-x="386" />
<glyph unicode="&#x200a;" horiz-adv-x="107" />
<glyph unicode="&#x2010;" horiz-adv-x="817" d="M104 598v137h609v-137h-609z" />
<glyph unicode="&#x2011;" horiz-adv-x="817" d="M104 598v137h609v-137h-609z" />
<glyph unicode="&#x2012;" horiz-adv-x="817" d="M104 598v137h609v-137h-609z" />
<glyph unicode="&#x2013;" horiz-adv-x="1024" d="M0 598v137h1024v-137h-1024z" />
<glyph unicode="&#x2014;" horiz-adv-x="2048" d="M0 598v137h2048v-137h-2048z" />
<glyph unicode="&#x2018;" horiz-adv-x="536" d="M180 1153v195q0 100 41.5 153t134.5 66v-76q-50 -10 -73 -39.5t-23 -97.5h96v-201h-176z" />
<glyph unicode="&#x2019;" horiz-adv-x="536" d="M180 1153v76q50 10 73 39.5t23 97.5h-96v201h176v-195q0 -100 -41.5 -153t-134.5 -66z" />
<glyph unicode="&#x201a;" horiz-adv-x="536" d="M180 0v201h176v-195q0 -100 -41.5 -153t-134.5 -66v76q50 10 73 39.5t23 97.5h-96z" />
<glyph unicode="&#x201c;" horiz-adv-x="808" d="M180 1153v195q0 100 41.5 153t134.5 66v-76q-50 -10 -73 -39.5t-23 -97.5h96v-201h-176zM453 1153v195q0 100 41.5 153t134.5 66v-76q-50 -10 -73.5 -40t-23.5 -97h97v-201h-176z" />
<glyph unicode="&#x201d;" horiz-adv-x="808" d="M180 1153v76q50 10 73 39.5t23 97.5h-96v201h176v-195q0 -100 -41.5 -153t-134.5 -66zM453 1153v76q50 10 73 39.5t23 97.5h-96v201h176v-195q0 -100 -41.5 -153t-134.5 -66z" />
<glyph unicode="&#x201e;" horiz-adv-x="808" d="M180 0v201h176v-195q0 -100 -41.5 -153t-134.5 -66v76q50 10 73 39.5t23 97.5h-96zM453 0v201h176v-195q0 -100 -41.5 -153t-134.5 -66v76q50 10 73 39.5t23 97.5h-96z" />
<glyph unicode="&#x2022;" horiz-adv-x="739" d="M109 668q0 107 76.5 183.5t185.5 76.5q107 0 183.5 -76.5t76.5 -183.5t-76.5 -183.5t-183.5 -76.5q-109 0 -185.5 76.5t-76.5 183.5z" />
<glyph unicode="&#x2026;" horiz-adv-x="1609" d="M180 0v201h176v-201h-176zM717 0v201h176v-201h-176zM1253 0v201h177v-201h-177z" />
<glyph unicode="&#x202f;" horiz-adv-x="386" />
<glyph unicode="&#x2039;" horiz-adv-x="606" d="M86 596v86l434 285v-131l-309 -197l309 -197v-131z" />
<glyph unicode="&#x203a;" horiz-adv-x="606" d="M86 311v131l309 197l-309 197v131l434 -285v-86z" />
<glyph unicode="&#x205f;" horiz-adv-x="483" />
<glyph unicode="&#x20ac;" horiz-adv-x="1232" d="M43 539v102h104v141h-104v103h104v8q0 252 136.5 408.5t363.5 156.5q201 0 334 -120t162 -324l-160 -27q-28 158 -115.5 242t-220.5 84q-152 0 -243.5 -113.5t-94.5 -314.5h379l-14 -103h-365v-141h342l-14 -102h-328q6 -197 97 -307.5t241 -110.5q133 0 220.5 83 t115.5 240l160 -26q-29 -204 -162 -323.5t-334 -119.5q-227 0 -363.5 156t-136.5 408h-104z" />
<glyph unicode="&#x2122;" horiz-adv-x="1253" d="M33 1325v109h487v-109h-180v-575h-127v575h-180zM563 750h127v440l144 -270h81l144 270v-440h127v684h-111l-201 -373l-200 373h-111v-684z" />
<glyph unicode="&#x25fc;" horiz-adv-x="1024" d="M0 0v1024h1024v-1024h-1024z" />
</font>
</defs>
</svg>
